<svg width="40" height="40" viewBox="0 0 40 40" fill="none" xmlns="http://www.w3.org/2000/svg">
<g clip-path="url(#clip0_908_251)">
<path d="M20 0C8.95469 0 0 8.95469 0 20C0 31.0453 8.95469 40 20 40C31.0453 40 40 31.0453 40 20C40 8.95469 31.0453 0 20 0ZM22.5 27.6664L21.3969 28.7703C18.5977 31.5695 14.0406 31.6562 11.2141 28.8852C10.5367 28.2193 9.99789 27.426 9.62854 26.5509C9.25918 25.6759 9.06664 24.7364 9.06199 23.7866C9.05734 22.8368 9.24069 21.8955 9.60146 21.0168C9.96223 20.1382 10.4933 19.3397 11.1641 18.6672L12.3359 17.4992C12.4978 17.3373 12.69 17.2088 12.9015 17.1211C13.113 17.0335 13.3398 16.9884 13.5687 16.9884C13.7977 16.9884 14.0245 17.0335 14.236 17.1211C14.4475 17.2088 14.6397 17.3373 14.8016 17.4992C14.9635 17.6611 15.092 17.8533 15.1796 18.0648C15.2673 18.2763 15.3124 18.5031 15.3124 18.732C15.3124 18.961 15.2673 19.1877 15.1796 19.3993C15.092 19.6108 14.9635 19.803 14.8016 19.9648L13.6297 21.1367C12.9444 21.8236 12.5558 22.7518 12.5474 23.722C12.5389 24.6922 12.9112 25.627 13.5844 26.3258C15.0242 27.8164 17.4477 27.7906 18.9125 26.3258L20.0344 25.2039C20.1962 25.042 20.3884 24.9135 20.6 24.8258C20.8115 24.7382 21.0382 24.6931 21.2672 24.6931C21.4962 24.6931 21.7229 24.7382 21.9344 24.8258C22.146 24.9135 22.3381 25.042 22.5 25.2039C22.8261 25.5307 23.0093 25.9735 23.0093 26.4352C23.0093 26.8968 22.8261 27.3396 22.5 27.6664ZM24.1758 18.2914L18.2891 24.1781C17.962 24.5052 17.5184 24.6889 17.0559 24.6889C16.5933 24.6889 16.1497 24.5052 15.8227 24.1781C15.4956 23.8511 15.3118 23.4075 15.3118 22.9449C15.3118 22.4824 15.4956 22.0388 15.8227 21.7117L21.7094 15.825C22.0364 15.4979 22.48 15.3142 22.9426 15.3142C23.4051 15.3142 23.8487 15.4979 24.1758 15.825C24.5028 16.1521 24.6866 16.5957 24.6866 17.0582C24.6866 17.5207 24.5028 17.9643 24.1758 18.2914ZM28.8344 21.3344L27.6625 22.5023C27.5006 22.6643 27.3085 22.7928 27.0969 22.8804C26.8854 22.9681 26.6587 23.0132 26.4297 23.0132C26.2007 23.0132 25.974 22.9681 25.7625 22.8804C25.5509 22.7928 25.3587 22.6643 25.1969 22.5023C25.0349 22.3405 24.9064 22.1483 24.8188 21.9368C24.7311 21.7252 24.686 21.4985 24.686 21.2695C24.686 21.0406 24.7311 20.8138 24.8188 20.6023C24.9064 20.3908 25.0349 20.1986 25.1969 20.0367L26.3687 18.8648C27.054 18.178 27.4426 17.2498 27.4511 16.2796C27.4595 15.3094 27.0872 14.3745 26.4141 13.6758C24.9742 12.1852 22.5508 12.2109 21.0859 13.6758L19.9641 14.7977C19.8022 14.9596 19.61 15.0881 19.3985 15.1757C19.187 15.2634 18.9602 15.3085 18.7312 15.3085C18.5023 15.3085 18.2755 15.2634 18.064 15.1757C17.8525 15.0881 17.6603 14.9596 17.4984 14.7977C17.3365 14.6358 17.208 14.4436 17.1204 14.2321C17.0327 14.0205 16.9876 13.7938 16.9876 13.5648C16.9876 13.3359 17.0327 13.1091 17.1204 12.8976C17.208 12.6861 17.3365 12.4939 17.4984 12.332L18.6016 11.2281C21.4008 8.42891 25.9578 8.34219 28.7844 11.1133C29.462 11.7791 30.0011 12.5725 30.3707 13.4477C30.7402 14.3228 30.9329 15.2625 30.9376 16.2125C30.9423 17.1625 30.759 18.104 30.3982 18.9828C30.0373 19.8616 29.5061 20.6603 28.8352 21.3328L28.8344 21.3344Z" fill="#FFB700"/>
</g>
<defs>
<clipPath id="clip0_908_251">
<rect width="40" height="40" fill="white"/>
</clipPath>
</defs>
</svg>
