<svg width="68" height="68" viewBox="0 0 68 68" fill="none" xmlns="http://www.w3.org/2000/svg">
<g clip-path="url(#clip0_910_529)">
<path d="M62.3335 35.0994C61.7669 35.0994 61.2002 35.6661 61.2002 36.2326C61.2002 36.9126 61.6535 37.3659 62.3335 37.3659C63.0135 37.3659 63.4667 36.9126 63.4667 36.2326C63.4667 35.5526 63.0135 35.0994 62.3335 35.0994Z" fill="#E478AD"/>
<path d="M65.7334 31.6993C65.1668 31.6993 64.6001 32.2659 64.6001 32.8326C64.6001 33.5126 65.0534 33.9659 65.7334 33.9659C66.4134 33.9659 66.8666 33.5126 66.8666 32.8326C66.8666 32.1526 66.4134 31.6993 65.7334 31.6993Z" fill="#E478AD"/>
<path d="M58.9333 31.6993C58.3666 31.6993 57.8 32.2659 57.8 32.8326C57.8 33.5126 58.2533 33.9659 58.9333 33.9659C59.6133 33.9659 60.0666 33.5126 60.0666 32.8326C60.0666 32.1526 59.6133 31.6993 58.9333 31.6993Z" fill="#E478AD"/>
<path d="M55.5334 35.0994C54.9669 35.0994 54.4001 35.6661 54.4001 36.2326C54.4001 36.9126 54.8534 37.3659 55.5334 37.3659C56.2134 37.3659 56.6667 36.9126 56.6667 36.2326C56.6667 35.5526 56.2134 35.0994 55.5334 35.0994Z" fill="#E478AD"/>
<path d="M48.7334 35.0994C48.1667 35.0994 47.6001 35.6661 47.6001 36.2326C47.6001 36.9126 48.0534 37.3659 48.7334 37.3659C49.4134 37.3659 49.8666 36.9126 49.8666 36.2326C49.8666 35.5526 49.4134 35.0994 48.7334 35.0994Z" fill="#E478AD"/>
<path d="M52.1333 31.6993C51.5667 31.6993 51 32.2659 51 32.8326C51 33.5126 51.4533 33.9659 52.1333 33.9659C52.8133 33.9659 53.2665 33.5126 53.2665 32.8326C53.2665 32.1526 52.8133 31.6993 52.1333 31.6993Z" fill="#E478AD"/>
<path d="M45.3332 31.6993C44.7667 31.6993 44.2 32.2659 44.2 32.8326C44.2 33.5126 44.6532 33.9659 45.3332 33.9659C46.0132 33.9659 46.4665 33.5126 46.4665 32.8326C46.4665 32.1526 46.0132 31.6993 45.3332 31.6993Z" fill="#E478AD"/>
<path d="M41.9333 35.0994C41.3668 35.0994 40.8 35.6661 40.8 36.2326C40.8 36.9126 41.2533 37.3659 41.9333 37.3659C42.6133 37.3659 43.0666 36.9126 43.0666 36.2326C43.0666 35.5526 42.6134 35.0994 41.9333 35.0994Z" fill="#E478AD"/>
<path d="M35.1333 35.0994C34.5667 35.0994 34 35.6661 34 36.2326C34 36.9126 34.4533 37.3659 35.1333 37.3659C35.8133 37.3659 36.2665 36.9126 36.2665 36.2326C36.2665 35.5526 35.8133 35.0994 35.1333 35.0994Z" fill="#E478AD"/>
<path d="M38.5334 31.6993C37.9667 31.6993 37.4001 32.2659 37.4001 32.8326C37.4001 33.5126 37.8534 33.9659 38.5334 33.9659C39.2134 33.9659 39.6667 33.5126 39.6667 32.8326C39.6667 32.1526 39.2134 31.6993 38.5334 31.6993Z" fill="#E478AD"/>
<path d="M62.3335 28.2994C61.7669 28.2993 61.2002 28.866 61.2002 29.4327C61.2002 30.1127 61.6535 30.566 62.3335 30.566C63.0135 30.566 63.4667 30.1127 63.4667 29.4327C63.4667 28.7527 63.0135 28.2994 62.3335 28.2994Z" fill="#E478AD"/>
<path d="M62.3335 21.4994C61.7669 21.4994 61.2002 22.066 61.2002 22.6327C61.2002 23.3127 61.6535 23.7659 62.3335 23.7659C63.0135 23.7659 63.4667 23.3127 63.4667 22.6327C63.4667 21.9527 63.0135 21.4994 62.3335 21.4994Z" fill="#E478AD"/>
<path d="M65.7334 24.8993C65.1668 24.8993 64.6001 25.466 64.6001 26.0326C64.6001 26.7126 65.0534 27.1658 65.7334 27.1658C66.4134 27.1658 66.8666 26.7126 66.8666 26.0326C66.8666 25.3526 66.4134 24.8993 65.7334 24.8993Z" fill="#E478AD"/>
<path d="M58.9333 24.8993C58.3666 24.8993 57.8 25.466 57.8 26.0326C57.8 26.7126 58.2533 27.1658 58.9333 27.1658C59.6133 27.1658 60.0666 26.7126 60.0666 26.0326C60.0666 25.3526 59.6133 24.8993 58.9333 24.8993Z" fill="#E478AD"/>
<path d="M55.5334 28.2994C54.9669 28.2993 54.4001 28.866 54.4001 29.4327C54.4001 30.1127 54.8534 30.566 55.5334 30.566C56.2134 30.566 56.6667 30.1127 56.6667 29.4327C56.6667 28.7527 56.2134 28.2994 55.5334 28.2994Z" fill="#E478AD"/>
<path d="M48.7334 28.2994C48.1667 28.2993 47.6001 28.866 47.6001 29.4327C47.6001 30.1127 48.0534 30.566 48.7334 30.566C49.4134 30.566 49.8666 30.1127 49.8666 29.4327C49.8666 28.7527 49.4134 28.2994 48.7334 28.2994Z" fill="#E478AD"/>
<path d="M55.5334 21.4994C54.9669 21.4994 54.4001 22.066 54.4001 22.6327C54.4001 23.3127 54.8534 23.7659 55.5334 23.7659C56.2134 23.7659 56.6667 23.3127 56.6667 22.6327C56.6667 21.9527 56.2134 21.4994 55.5334 21.4994Z" fill="#E478AD"/>
<path d="M48.7334 21.4994C48.1667 21.4994 47.6001 22.066 47.6001 22.6327C47.6001 23.3127 48.0534 23.7659 48.7334 23.7659C49.4134 23.7659 49.8666 23.3127 49.8666 22.6327C49.8666 21.9527 49.4134 21.4994 48.7334 21.4994Z" fill="#E478AD"/>
<path d="M52.1333 24.8993C51.5667 24.8993 51 25.466 51 26.0326C51 26.7126 51.4533 27.1658 52.1333 27.1658C52.8133 27.1658 53.2665 26.7126 53.2665 26.0326C53.2665 25.3526 52.8133 24.8993 52.1333 24.8993Z" fill="#E478AD"/>
<path d="M45.3332 24.8993C44.7667 24.8993 44.2 25.466 44.2 26.0326C44.2 26.7126 44.6532 27.1658 45.3332 27.1658C46.0132 27.1658 46.4665 26.7126 46.4665 26.0326C46.4665 25.3526 46.0132 24.8993 45.3332 24.8993Z" fill="#E478AD"/>
<path d="M41.9333 28.2994C41.3668 28.2993 40.8 28.866 40.8 29.4327C40.8 30.1127 41.2533 30.566 41.9333 30.566C42.6133 30.566 43.0666 30.1127 43.0666 29.4327C43.0667 28.7527 42.6134 28.2994 41.9333 28.2994Z" fill="#E478AD"/>
<path d="M35.1333 28.2994C34.5667 28.2993 34 28.866 34 29.4327C34 30.1127 34.4533 30.566 35.1333 30.566C35.8133 30.566 36.2665 30.1127 36.2665 29.4327C36.2665 28.7527 35.8133 28.2994 35.1333 28.2994Z" fill="#E478AD"/>
<path d="M41.9333 21.4994C41.3668 21.4994 40.8 22.066 40.8 22.6327C40.8 23.3127 41.2533 23.7659 41.9333 23.7659C42.6133 23.7659 43.0666 23.3127 43.0666 22.6327C43.0666 21.9527 42.6134 21.4994 41.9333 21.4994Z" fill="#E478AD"/>
<path d="M35.1333 21.4994C34.5667 21.4994 34 22.066 34 22.6327C34 23.3127 34.4533 23.7659 35.1333 23.7659C35.8133 23.7659 36.2665 23.3127 36.2665 22.6327C36.2665 21.9527 35.8133 21.4994 35.1333 21.4994Z" fill="#E478AD"/>
<path d="M38.5334 24.8993C37.9667 24.8993 37.4001 25.466 37.4001 26.0326C37.4001 26.7126 37.8534 27.1658 38.5334 27.1658C39.2134 27.1658 39.6667 26.7126 39.6667 26.0326C39.6667 25.3526 39.2134 24.8993 38.5334 24.8993Z" fill="#E478AD"/>
<path d="M62.3335 14.6993C61.7669 14.6993 61.2002 15.266 61.2002 15.8326C61.2002 16.5126 61.6535 16.9659 62.3335 16.9659C63.0135 16.9659 63.4667 16.5126 63.4667 15.8326C63.4667 15.1526 63.0135 14.6993 62.3335 14.6993Z" fill="#E478AD"/>
<path d="M65.7334 18.0994C65.1668 18.0992 64.6001 18.6659 64.6001 19.2326C64.6001 19.9126 65.0534 20.3659 65.7334 20.3659C66.4134 20.3659 66.8666 19.9126 66.8666 19.2326C66.8666 18.5526 66.4134 18.0994 65.7334 18.0994Z" fill="#E478AD"/>
<path d="M58.9333 18.0994C58.3666 18.0992 57.8 18.6659 57.8 19.2326C57.8 19.9126 58.2533 20.3659 58.9333 20.3659C59.6133 20.3659 60.0666 19.9126 60.0666 19.2326C60.0666 18.5526 59.6133 18.0994 58.9333 18.0994Z" fill="#E478AD"/>
<path d="M65.7334 11.2993C65.1668 11.2993 64.6001 11.8659 64.6001 12.4326C64.6001 13.1126 65.0534 13.5659 65.7334 13.5659C66.4134 13.5659 66.8666 13.1126 66.8666 12.4326C66.8666 11.7526 66.4134 11.2993 65.7334 11.2993Z" fill="#E478AD"/>
<path d="M58.9333 11.2993C58.3666 11.2993 57.8 11.8659 57.8 12.4326C57.8 13.1126 58.2533 13.5659 58.9333 13.5659C59.6133 13.5659 60.0666 13.1126 60.0666 12.4326C60.0666 11.7526 59.6133 11.2993 58.9333 11.2993Z" fill="#E478AD"/>
<path d="M55.5334 14.6993C54.9669 14.6993 54.4001 15.266 54.4001 15.8326C54.4001 16.5126 54.8534 16.9659 55.5334 16.9659C56.2134 16.9659 56.6667 16.5126 56.6667 15.8326C56.6667 15.1526 56.2134 14.6993 55.5334 14.6993Z" fill="#E478AD"/>
<path d="M48.7334 14.6993C48.1667 14.6993 47.6001 15.266 47.6001 15.8326C47.6001 16.5126 48.0534 16.9659 48.7334 16.9659C49.4134 16.9659 49.8666 16.5126 49.8666 15.8326C49.8666 15.1526 49.4134 14.6993 48.7334 14.6993Z" fill="#E478AD"/>
<path d="M52.1333 18.0994C51.5667 18.0992 51 18.6659 51 19.2326C51 19.9126 51.4533 20.3659 52.1333 20.3659C52.8133 20.3659 53.2665 19.9126 53.2665 19.2326C53.2665 18.5526 52.8133 18.0994 52.1333 18.0994Z" fill="#E478AD"/>
<path d="M45.3332 18.0994C44.7667 18.0992 44.2 18.6659 44.2 19.2326C44.2 19.9126 44.6532 20.3659 45.3332 20.3659C46.0132 20.3659 46.4665 19.9126 46.4665 19.2326C46.4665 18.5526 46.0132 18.0994 45.3332 18.0994Z" fill="#E478AD"/>
<path d="M52.1333 11.2993C51.5667 11.2993 51 11.8659 51 12.4326C51 13.1126 51.4533 13.5659 52.1333 13.5659C52.8133 13.5659 53.2665 13.1126 53.2665 12.4326C53.2665 11.7526 52.8133 11.2993 52.1333 11.2993Z" fill="#E478AD"/>
<path d="M45.3332 11.2993C44.7667 11.2993 44.2 11.8659 44.2 12.4326C44.2 13.1126 44.6532 13.5659 45.3332 13.5659C46.0132 13.5659 46.4665 13.1126 46.4665 12.4326C46.4665 11.7526 46.0132 11.2993 45.3332 11.2993Z" fill="#E478AD"/>
<path d="M41.9333 14.6993C41.3668 14.6993 40.8 15.266 40.8 15.8326C40.8 16.5126 41.2533 16.9659 41.9333 16.9659C42.6133 16.9659 43.0666 16.5126 43.0666 15.8326C43.0666 15.1526 42.6134 14.6993 41.9333 14.6993Z" fill="#E478AD"/>
<path d="M35.1333 14.6993C34.5667 14.6993 34 15.266 34 15.8326C34 16.5126 34.4533 16.9659 35.1333 16.9659C35.8133 16.9659 36.2665 16.5126 36.2665 15.8326C36.2665 15.1526 35.8133 14.6993 35.1333 14.6993Z" fill="#E478AD"/>
<path d="M38.5334 18.0994C37.9667 18.0992 37.4001 18.6659 37.4001 19.2326C37.4001 19.9126 37.8534 20.3659 38.5334 20.3659C39.2134 20.3659 39.6667 19.9126 39.6667 19.2326C39.6667 18.5526 39.2134 18.0994 38.5334 18.0994Z" fill="#E478AD"/>
<path d="M38.5334 11.2993C37.9667 11.2993 37.4001 11.8659 37.4001 12.4326C37.4001 13.1126 37.8534 13.5659 38.5334 13.5659C39.2134 13.5659 39.6667 13.1126 39.6667 12.4326C39.6667 11.7526 39.2134 11.2993 38.5334 11.2993Z" fill="#E478AD"/>
<path d="M62.3335 7.89941C61.7669 7.89928 61.2002 8.46598 61.2002 9.03269C61.2002 9.71268 61.6535 10.166 62.3335 10.166C63.0135 10.166 63.4667 9.71268 63.4667 9.03269C63.4667 8.3527 63.0135 7.89941 62.3335 7.89941Z" fill="#E478AD"/>
<path d="M62.3335 1.09937C61.7669 1.09937 61.2002 1.66593 61.2002 2.23264C61.2002 2.91263 61.6535 3.36591 62.3335 3.36591C63.0135 3.36591 63.4667 2.91263 63.4667 2.23264C63.4667 1.55265 63.0135 1.09937 62.3335 1.09937Z" fill="#E478AD"/>
<path d="M65.7334 4.49939C65.1668 4.49939 64.6001 5.06609 64.6001 5.63266C64.6001 6.31265 65.0534 6.76594 65.7334 6.76594C66.4134 6.76594 66.8666 6.31265 66.8666 5.63266C66.8666 4.95267 66.4134 4.49939 65.7334 4.49939Z" fill="#E478AD"/>
<path d="M58.9333 4.49939C58.3666 4.49939 57.8 5.06609 57.8 5.63266C57.8 6.31265 58.2533 6.76594 58.9333 6.76594C59.6133 6.76594 60.0666 6.31265 60.0666 5.63266C60.0666 4.95267 59.6133 4.49939 58.9333 4.49939Z" fill="#E478AD"/>
<path d="M55.5334 7.89941C54.9669 7.89928 54.4001 8.46598 54.4001 9.03269C54.4001 9.71268 54.8534 10.166 55.5334 10.166C56.2134 10.166 56.6667 9.71268 56.6667 9.03269C56.6667 8.3527 56.2134 7.89941 55.5334 7.89941Z" fill="#E478AD"/>
<path d="M48.7334 7.89941C48.1667 7.89928 47.6001 8.46598 47.6001 9.03269C47.6001 9.71268 48.0534 10.166 48.7334 10.166C49.4134 10.166 49.8666 9.71268 49.8666 9.03269C49.8666 8.3527 49.4134 7.89941 48.7334 7.89941Z" fill="#E478AD"/>
<path d="M55.5334 1.09937C54.9669 1.09937 54.4001 1.66593 54.4001 2.23264C54.4001 2.91263 54.8534 3.36591 55.5334 3.36591C56.2134 3.36591 56.6667 2.91263 56.6667 2.23264C56.6667 1.55265 56.2134 1.09937 55.5334 1.09937Z" fill="#E478AD"/>
<path d="M48.7334 1.09937C48.1667 1.09937 47.6001 1.66593 47.6001 2.23264C47.6001 2.91263 48.0534 3.36591 48.7334 3.36591C49.4134 3.36591 49.8666 2.91263 49.8666 2.23264C49.8666 1.55265 49.4134 1.09937 48.7334 1.09937Z" fill="#E478AD"/>
<path d="M52.1333 4.49939C51.5667 4.49939 51 5.06609 51 5.63266C51 6.31265 51.4533 6.76594 52.1333 6.76594C52.8133 6.76594 53.2665 6.31265 53.2665 5.63266C53.2665 4.95267 52.8133 4.49939 52.1333 4.49939Z" fill="#E478AD"/>
<path d="M45.3332 4.49939C44.7667 4.49939 44.2 5.06609 44.2 5.63266C44.2 6.31265 44.6532 6.76594 45.3332 6.76594C46.0132 6.76594 46.4665 6.31265 46.4665 5.63266C46.4665 4.95267 46.0132 4.49939 45.3332 4.49939Z" fill="#E478AD"/>
<path d="M41.9333 7.89941C41.3668 7.89928 40.8 8.46598 40.8 9.03269C40.8 9.71268 41.2533 10.166 41.9333 10.166C42.6133 10.166 43.0666 9.71268 43.0666 9.03269C43.0666 8.3527 42.6134 7.89941 41.9333 7.89941Z" fill="#E478AD"/>
<path d="M35.1333 7.89941C34.5667 7.89928 34 8.46598 34 9.03269C34 9.71268 34.4533 10.166 35.1333 10.166C35.8133 10.166 36.2665 9.71268 36.2665 9.03269C36.2665 8.3527 35.8133 7.89941 35.1333 7.89941Z" fill="#E478AD"/>
<path d="M41.9333 1.09937C41.3668 1.09937 40.8 1.66593 40.8 2.23264C40.8 2.91263 41.2533 3.36591 41.9333 3.36591C42.6133 3.36591 43.0666 2.91263 43.0666 2.23264C43.0667 1.55265 42.6134 1.09937 41.9333 1.09937Z" fill="#E478AD"/>
<path d="M35.1333 1.09937C34.5667 1.09937 34 1.66593 34 2.23264C34 2.91263 34.4533 3.36591 35.1333 3.36591C35.8133 3.36591 36.2665 2.91263 36.2665 2.23264C36.2665 1.55265 35.8133 1.09937 35.1333 1.09937Z" fill="#E478AD"/>
<path d="M38.5334 4.49939C37.9667 4.49939 37.4001 5.06609 37.4001 5.63266C37.4001 6.31265 37.8534 6.76594 38.5334 6.76594C39.2134 6.76594 39.6667 6.31265 39.6667 5.63266C39.6667 4.95267 39.2134 4.49939 38.5334 4.49939Z" fill="#E478AD"/>
<path d="M68 1.13327C68 0.453282 67.5467 0 66.8667 0H34.0001H1.13327C0.453282 0 0 0.453282 0 1.13327V66.8667C0 67.5467 0.453282 68 1.13327 68H33.9999C34.6799 68 35.1333 67.5466 35.1332 66.8665V53.2666H62.3334C65.5067 53.2666 68 49.7533 68 45.3333C68 45.3333 68 45.3333 68 45.3332V1.13327ZM35.1335 2.26668H65.7333V38.9557C65.424 38.6339 65.089 38.3572 64.7339 38.1286C64.6819 38.095 64.6299 38.0616 64.577 38.0303C64.5443 38.011 64.5109 37.9932 64.4778 37.9747C64.4336 37.9498 64.3893 37.9251 64.3444 37.9019C64.3024 37.88 64.2599 37.8595 64.2174 37.839C64.1838 37.8229 64.1503 37.807 64.1164 37.7917C64.0653 37.7686 64.014 37.7464 63.9623 37.7252C63.9415 37.7167 63.9206 37.7088 63.8997 37.7006C63.6351 37.5969 63.3623 37.5191 63.0825 37.4689C63.0544 37.4637 63.0265 37.4588 62.9984 37.4542C62.9483 37.4462 62.8982 37.439 62.8477 37.433C62.8023 37.4273 62.7568 37.423 62.7113 37.4188C62.6731 37.4154 62.6349 37.4115 62.5964 37.4091C62.5088 37.4035 62.4211 37.4 62.3334 37.4H62.3332H35.1335V2.26668ZM29.4666 50.9998C28.39 50.9998 27.3932 50.0808 26.7611 48.6937C26.3286 47.7446 26.0666 46.5762 26.0666 45.3332C26.0666 44.6639 26.1425 44.0162 26.2801 43.4127C26.7716 41.2576 28.0497 39.6666 29.4666 39.6666H33.9968C33.9979 39.6666 33.9989 39.6667 33.9999 39.6667H58.3417C57.3032 41.1007 56.6666 43.1009 56.6666 45.3333C56.6666 47.5657 57.3032 49.5659 58.3416 50.9998H29.4666ZM32.8668 65.7333H2.26668V2.26668H32.8667V37.4H29.4667C26.2935 37.4 23.7999 40.9134 23.7999 45.3333C23.7999 49.7533 26.2932 53.2666 29.4666 53.2666H32.8667L32.8668 65.7333ZM62.3334 50.9998C61.2568 50.9998 60.26 50.0808 59.6278 48.6937C59.1954 47.7446 58.9334 46.5762 58.9334 45.3332C58.9334 44.6639 59.0093 44.0162 59.1469 43.4127C59.638 41.2591 60.9149 39.6689 62.3304 39.6667H62.3335C63.5606 39.6667 64.6834 40.8614 65.2814 42.5818C65.567 43.4034 65.7335 44.3443 65.7333 45.3332C65.7333 48.3932 64.1468 50.9998 62.3334 50.9998Z" fill="#E478AD"/>
</g>
<defs>
<clipPath id="clip0_910_529">
<rect width="68" height="68" fill="white"/>
</clipPath>
</defs>
</svg>
