<svg width="68" height="68" viewBox="0 0 68 68" fill="none" xmlns="http://www.w3.org/2000/svg">
<g clip-path="url(#clip0_910_508)">
<path fill-rule="evenodd" clip-rule="evenodd" d="M25.3367 12.8577L20.2224 10.1749C19.4937 9.79269 18.6233 9.79269 17.8946 10.1749C15.773 11.2879 9.17198 14.7509 6.91368 15.9356C6.08842 16.3679 5.57227 17.2225 5.57227 18.1538V39.2345C5.57227 39.8272 6.05328 40.3081 6.64589 40.3081C7.23784 40.3081 7.71963 39.8271 7.71963 39.2345C7.71963 39.2345 7.71963 24.671 7.71963 18.1538C7.71963 18.0214 7.7934 17.8989 7.91074 17.8374L18.8924 12.0767C18.9961 12.0224 19.1207 12.0224 19.2245 12.0767L24.3388 14.7595C24.8634 15.0351 25.5133 14.8325 25.7882 14.3072C26.0639 13.7826 25.8614 13.1333 25.3367 12.8577Z" fill="#78E49E"/>
<path fill-rule="evenodd" clip-rule="evenodd" d="M20.1323 23.81V20.5789C20.1323 19.1953 19.0106 18.0737 17.627 18.0737C16.7817 18.0737 15.7159 18.0737 14.8706 18.0737C13.4869 18.0737 12.3652 19.1954 12.3652 20.5789V23.81C12.3652 25.1937 13.4869 26.3152 14.8706 26.3152H17.627C19.0107 26.3152 20.1323 25.1937 20.1323 23.81ZM17.9849 20.5789V23.81C17.9849 24.0077 17.8245 24.168 17.6269 24.168H14.8704C14.6728 24.168 14.5125 24.0077 14.5125 23.81V20.5789C14.5125 20.3807 14.6728 20.221 14.8704 20.221H17.6269C17.8245 20.2211 17.9849 20.3807 17.9849 20.5789Z" fill="#78E49E"/>
<path fill-rule="evenodd" clip-rule="evenodd" d="M20.1323 35.1066V31.8755C20.1323 30.4919 19.0106 29.3703 17.627 29.3703C16.7817 29.3703 15.7159 29.3703 14.8706 29.3703C13.4869 29.3703 12.3652 30.492 12.3652 31.8755V35.1066C12.3652 36.4902 13.4869 37.6118 14.8706 37.6118H17.627C19.0107 37.6119 20.1323 36.4902 20.1323 35.1066ZM17.9849 31.8756V35.1067C17.9849 35.3043 17.8245 35.4647 17.6269 35.4647H14.8704C14.6728 35.4647 14.5125 35.3043 14.5125 35.1067V31.8756C14.5125 31.678 14.6728 31.5177 14.8704 31.5177H17.6269C17.8245 31.5177 17.9849 31.678 17.9849 31.8756Z" fill="#78E49E"/>
<path fill-rule="evenodd" clip-rule="evenodd" d="M57.0362 35.4903V3.65273C57.0362 2.26909 55.9145 1.14752 54.531 1.14752H26.2694C24.8857 1.14752 23.7642 2.26921 23.7642 3.65273V34.9399C23.7642 35.5326 24.2452 36.0135 24.8378 36.0135C25.4305 36.0135 25.9114 35.5325 25.9114 34.9399V3.65273C25.9114 3.45523 26.0718 3.29478 26.2694 3.29478H54.5309C54.7284 3.29478 54.8888 3.45511 54.8888 3.65273V35.4904C54.8888 36.0831 55.3698 36.564 55.9624 36.564C56.5552 36.564 57.0362 36.083 57.0362 35.4903Z" fill="#78E49E"/>
<path fill-rule="evenodd" clip-rule="evenodd" d="M30.0059 11.371V15.1533C30.0059 16.537 31.1275 17.6585 32.5111 17.6585H36.9311C38.3147 17.6585 39.4363 16.5368 39.4363 15.1533V10.1178C39.4363 8.73412 38.3146 7.61255 36.9311 7.61255C35.6527 7.61255 34.6964 7.61255 33.418 7.61255C32.8252 7.61255 32.3443 8.09356 32.3443 8.68618C32.3443 9.27891 32.8253 9.7598 33.418 9.7598H36.9311C37.1286 9.7598 37.2891 9.92014 37.2891 10.1178V15.1533C37.2891 15.3508 37.1287 15.5113 36.9311 15.5113C35.6527 15.5113 33.7895 15.5113 32.5111 15.5113C32.3135 15.5113 32.1531 15.3509 32.1531 15.1533C32.1531 15.1526 32.1531 11.371 32.1531 11.371C32.1531 10.7783 31.6721 10.2974 31.0795 10.2974C30.4869 10.2974 30.0059 10.7784 30.0059 11.371Z" fill="#78E49E"/>
<path fill-rule="evenodd" clip-rule="evenodd" d="M39.4366 27.0604V22.0249C39.4366 20.6412 38.3149 19.5197 36.9314 19.5197C35.6529 19.5197 33.7897 19.5197 32.5113 19.5197C31.1277 19.5197 30.0061 20.6413 30.0061 22.0249V27.0604C30.0061 28.4441 31.1278 29.5656 32.5113 29.5656H36.9314C38.3149 29.5656 39.4366 28.4441 39.4366 27.0604ZM37.2892 22.0249V27.0604C37.2892 27.258 37.1289 27.4184 36.9312 27.4184C35.6528 27.4184 33.7896 27.4184 32.5112 27.4184C32.3136 27.4184 32.1532 27.258 32.1532 27.0604V22.0249C32.1532 21.8274 32.3136 21.6669 32.5112 21.6669H36.9312C37.1289 21.6669 37.2892 21.8272 37.2892 22.0249Z" fill="#78E49E"/>
<path fill-rule="evenodd" clip-rule="evenodd" d="M50.7945 15.1533V10.1178C50.7945 8.73412 49.6728 7.61255 48.2893 7.61255C47.0108 7.61255 45.1477 7.61255 43.8692 7.61255C42.4856 7.61255 41.364 8.73423 41.364 10.1178V15.1533C41.364 16.537 42.4857 17.6585 43.8692 17.6585H48.2893C49.6728 17.6585 50.7945 16.537 50.7945 15.1533ZM48.6471 10.1178V15.1533C48.6471 15.3508 48.4874 15.5113 48.2892 15.5113C47.0107 15.5113 45.1475 15.5113 43.8691 15.5113C43.6715 15.5113 43.5112 15.3509 43.5112 15.1533C43.5112 15.1526 43.5112 10.1178 43.5112 10.1178C43.5112 9.92025 43.6715 9.7598 43.8691 9.7598H48.2892C48.4874 9.7598 48.6471 9.92014 48.6471 10.1178Z" fill="#78E49E"/>
<path fill-rule="evenodd" clip-rule="evenodd" d="M50.7945 27.0604V22.0249C50.7945 20.6412 49.6728 19.5197 48.2893 19.5197C47.0108 19.5197 45.1477 19.5197 43.8692 19.5197C42.4856 19.5197 41.364 20.6413 41.364 22.0249V27.0604C41.364 28.4441 42.4857 29.5656 43.8692 29.5656H48.2893C49.6728 29.5656 50.7945 28.4441 50.7945 27.0604ZM48.6471 22.0249V27.0604C48.6471 27.258 48.4874 27.4184 48.2892 27.4184C47.0107 27.4184 45.1475 27.4184 43.8691 27.4184C43.6715 27.4184 43.5112 27.258 43.5112 27.0604V22.0249C43.5112 21.8274 43.6715 21.6669 43.8691 21.6669H48.2892C48.4874 21.6669 48.6471 21.8272 48.6471 22.0249Z" fill="#78E49E"/>
<path fill-rule="evenodd" clip-rule="evenodd" d="M65.8962 65.7789V40.1143C65.8962 39.1008 65.2857 38.1875 64.3495 37.7995C61.8178 36.7515 54.5904 33.7603 52.5418 32.912C51.9276 32.6586 51.2391 32.6586 50.6249 32.912C48.5764 33.7602 41.349 36.7514 38.8173 37.7995C37.881 38.1874 37.2705 39.1008 37.2705 40.1143V65.779C37.2705 66.3717 37.7515 66.8526 38.3441 66.8526C38.9361 66.8526 39.4178 66.3716 39.4178 65.779C39.4178 65.779 39.4178 44.875 39.4178 40.1143C39.4178 39.9697 39.5043 39.8395 39.6383 39.7837L51.4466 34.8962C51.534 34.8604 51.6328 34.8604 51.72 34.8962L63.5284 39.7837C63.6615 39.8395 63.7489 39.9697 63.7489 40.1143V65.779C63.7489 66.3717 64.2299 66.8526 64.8225 66.8526C65.4151 66.8526 65.8962 66.3716 65.8962 65.7789Z" fill="#78E49E"/>
<path fill-rule="evenodd" clip-rule="evenodd" d="M50.542 44.0655C50.542 42.6818 49.4203 41.5602 48.0368 41.5602H45.3089C43.9253 41.5602 42.8037 42.6819 42.8037 44.0655V47.265C42.8037 48.6486 43.9254 49.7702 45.3089 49.7702H48.0368C49.4204 49.7702 50.542 48.6485 50.542 47.265C50.542 46.3001 50.542 45.0311 50.542 44.0655ZM48.3946 44.0655V47.265C48.3946 47.4633 48.2343 47.623 48.0367 47.623H45.3088C45.1112 47.623 44.9509 47.4633 44.9509 47.265C44.9509 46.3001 44.9509 45.0311 44.9509 44.0655C44.9509 43.8679 45.1112 43.7075 45.3088 43.7075H48.0367C48.2343 43.7075 48.3946 43.8678 48.3946 44.0655Z" fill="#78E49E"/>
<path fill-rule="evenodd" clip-rule="evenodd" d="M50.542 55.4372C50.542 54.0535 49.4203 52.9319 48.0368 52.9319C47.1993 52.9319 46.1464 52.9319 45.3089 52.9319C43.9253 52.9319 42.8037 54.0536 42.8037 55.4372V58.6367C42.8037 60.0203 43.9254 61.1419 45.3089 61.1419H48.0368C49.4204 61.1419 50.542 60.0202 50.542 58.6367C50.542 57.6719 50.542 56.4028 50.542 55.4372ZM48.3946 55.4372V58.6367C48.3946 58.835 48.2343 58.9947 48.0367 58.9947H45.3088C45.1112 58.9947 44.9509 58.835 44.9509 58.6367C44.9509 57.6719 44.9509 56.4028 44.9509 55.4372C44.9509 55.2397 45.1112 55.0792 45.3088 55.0792H48.0367C48.2343 55.0793 48.3946 55.2397 48.3946 55.4372Z" fill="#78E49E"/>
<path fill-rule="evenodd" clip-rule="evenodd" d="M60.3633 44.0655C60.3633 42.6818 59.2416 41.5602 57.8581 41.5602C57.0206 41.5602 55.9677 41.5602 55.1302 41.5602C53.7466 41.5602 52.625 42.6819 52.625 44.0655V47.265C52.625 48.6486 53.7467 49.7702 55.1302 49.7702H57.8581C59.2417 49.7702 60.3633 48.6485 60.3633 47.265C60.3633 46.3001 60.3633 45.0311 60.3633 44.0655ZM58.2159 44.0655V47.265C58.2159 47.4633 58.0556 47.623 57.858 47.623H55.1301C54.9325 47.623 54.7721 47.4633 54.7721 47.265V44.0655C54.7721 43.8679 54.9325 43.7075 55.1301 43.7075H57.858C58.0556 43.7075 58.2159 43.8678 58.2159 44.0655Z" fill="#78E49E"/>
<path fill-rule="evenodd" clip-rule="evenodd" d="M60.3633 55.4372C60.3633 54.0535 59.2416 52.9319 57.8581 52.9319C57.0206 52.9319 55.9677 52.9319 55.1302 52.9319C53.7466 52.9319 52.625 54.0536 52.625 55.4372V58.6367C52.625 60.0203 53.7467 61.1419 55.1302 61.1419H57.8581C59.2417 61.1419 60.3633 60.0202 60.3633 58.6367C60.3633 57.6719 60.3633 56.4028 60.3633 55.4372ZM58.2159 55.4372V58.6367C58.2159 58.835 58.0556 58.9947 57.858 58.9947H55.1301C54.9325 58.9947 54.7721 58.835 54.7721 58.6367C54.7721 57.6719 54.7721 56.4028 54.7721 55.4372C54.7721 55.2397 54.9325 55.0792 55.1301 55.0792H57.858C58.0556 55.0793 58.2159 55.2397 58.2159 55.4372Z" fill="#78E49E"/>
<path fill-rule="evenodd" clip-rule="evenodd" d="M1.17244 48.3172C0.438007 49.6665 0 51.3192 0 53.1052C0 57.8201 3.06785 61.5222 6.64612 61.5222C10.2236 61.5222 13.2916 57.8202 13.2916 53.1052C13.2916 51.32 12.8542 49.6679 12.1227 48.3173C12.122 48.3166 12.1213 48.3159 12.1213 48.3152C11.6668 47.4806 11.4907 46.4412 11.6195 45.4284C11.6195 45.427 11.6195 45.4255 11.6195 45.4242C11.6589 45.1078 11.6789 44.7835 11.6789 44.4528C11.6789 40.9104 9.33389 38.1611 6.64612 38.1611C3.95767 38.1611 1.61269 40.9104 1.61269 44.4528C1.61269 44.785 1.63346 45.1107 1.675 45.4284C1.80312 46.4419 1.62773 47.4819 1.17244 48.3172ZM3.05853 49.3443C3.71773 48.1333 3.99192 46.6279 3.80508 45.1577C3.80508 45.1556 3.80508 45.1541 3.80441 45.1527C3.77432 44.9251 3.76006 44.691 3.76006 44.4526C3.76006 43.0454 4.25398 41.7871 5.0542 41.014C5.50232 40.5809 6.04766 40.3082 6.64612 40.3082C7.24379 40.3082 7.78925 40.5809 8.23736 41.014C9.03759 41.7871 9.53151 43.0454 9.53151 44.4526C9.53151 44.6938 9.51646 44.9308 9.48851 45.162C9.30234 46.6273 9.57586 48.1325 10.2358 49.3422C10.8092 50.4016 11.1442 51.7021 11.1442 53.1051C11.1442 55.216 10.3905 57.0984 9.19006 58.2588C8.47427 58.9495 7.59961 59.3747 6.64612 59.3747C5.69196 59.3747 4.81729 58.9495 4.10218 58.2588C2.90111 57.0984 2.14737 55.216 2.14737 53.1051C2.14737 51.7028 2.48163 50.4029 3.05853 49.3436V49.3443Z" fill="#78E49E"/>
<path fill-rule="evenodd" clip-rule="evenodd" d="M19.3648 48.3172C18.6297 49.6665 18.1924 51.3192 18.1924 53.1051C18.1924 57.82 21.2602 61.5221 24.8378 61.5221C28.4161 61.5221 31.4839 57.8201 31.4839 53.1051C31.4839 51.3199 31.0466 49.6678 30.3143 48.3172C30.3136 48.3165 30.3136 48.3157 30.3129 48.3151C29.8583 47.4805 29.683 46.4411 29.8111 45.4283C29.8111 45.4269 29.8111 45.4254 29.8118 45.4241C29.8504 45.1076 29.8705 44.7834 29.8705 44.4527C29.8705 40.9103 27.5255 38.1609 24.8377 38.1609C22.1499 38.1609 19.805 40.9103 19.805 44.4527C19.805 44.7848 19.8249 45.1106 19.8673 45.4283C19.9955 46.4419 19.8193 47.4819 19.3648 48.3172ZM21.2502 49.3443C21.9102 48.1333 22.1836 46.6279 21.9976 45.1577C21.9969 45.1556 21.9969 45.1541 21.9969 45.1527C21.9668 44.9251 21.9526 44.691 21.9526 44.4526C21.9526 43.0454 22.4457 41.7871 23.2467 41.014C23.6948 40.5809 24.2403 40.3082 24.8379 40.3082C25.4356 40.3082 25.9811 40.5809 26.4299 41.014C27.2301 41.7871 27.7233 43.0454 27.7233 44.4526C27.7233 44.6938 27.709 44.9308 27.6803 45.162C27.495 46.6273 27.7684 48.1325 28.4277 49.3422C29.0018 50.4016 29.3367 51.7021 29.3367 53.1051C29.3367 55.2159 28.583 57.0984 27.3819 58.2587C26.6668 58.9495 25.7921 59.3747 24.8379 59.3747C23.8838 59.3747 23.0091 58.9495 22.294 58.2587C21.0936 57.0984 20.3399 55.2159 20.3399 53.1051C20.3399 51.7028 20.6741 50.4029 21.2503 49.3435L21.2502 49.3443Z" fill="#78E49E"/>
<path fill-rule="evenodd" clip-rule="evenodd" d="M5.57227 48.8677V65.779C5.57227 66.3717 6.05328 66.8526 6.64589 66.8526C7.23784 66.8526 7.71952 66.3716 7.71952 65.779V48.8677C7.71952 48.275 7.23784 47.7941 6.64589 47.7941C6.05328 47.794 5.57227 48.275 5.57227 48.8677Z" fill="#78E49E"/>
<path fill-rule="evenodd" clip-rule="evenodd" d="M23.7642 48.8677V65.779C23.7642 66.3717 24.2452 66.8526 24.8378 66.8526C25.4304 66.8526 25.9114 66.3716 25.9114 65.779V48.8677C25.9114 48.275 25.4304 47.7941 24.8378 47.7941C24.2452 47.794 23.7642 48.275 23.7642 48.8677Z" fill="#78E49E"/>
<path fill-rule="evenodd" clip-rule="evenodd" d="M1.07363 66.8526H66.9263C67.519 66.8526 67.9999 66.3716 67.9999 65.779C67.9999 65.1864 67.5189 64.7054 66.9263 64.7054H1.07363C0.480898 64.7054 0 65.1864 0 65.779C0 66.3716 0.481011 66.8526 1.07363 66.8526Z" fill="#78E49E"/>
</g>
<defs>
<clipPath id="clip0_910_508">
<rect width="68" height="68" fill="white"/>
</clipPath>
</defs>
</svg>
