<svg width="20" height="20" viewBox="0 0 20 20" fill="none" xmlns="http://www.w3.org/2000/svg">
<g clip-path="url(#clip0_908_256)">
<path d="M9.99977 0C4.47711 0 0 4.47724 0 9.9999C0 15.5224 4.47711 20 9.99977 20C15.5224 20 19.9999 15.5224 19.9999 9.9999C19.9999 4.47724 15.5224 0 9.99977 0ZM9.99997 3.51244L15.9176 7.20247H4.08237L9.99997 3.51244ZM15.9913 13.095H15.9907C15.9907 13.6869 15.511 14.1665 14.9192 14.1665H5.08072C4.48884 14.1665 4.00924 13.6868 4.00924 13.095V7.43727C4.00924 7.37467 4.01564 7.31381 4.02604 7.25401L9.67996 10.7796C9.6869 10.7839 9.6943 10.7868 9.70143 10.7908C9.7089 10.795 9.7165 10.799 9.7241 10.8028C9.76403 10.8234 9.80516 10.84 9.84723 10.8508C9.85156 10.852 9.8559 10.8526 9.86023 10.8536C9.90637 10.8644 9.9531 10.8712 9.99977 10.8712H10.0001C10.0004 10.8712 10.0008 10.8712 10.0008 10.8712C10.0474 10.8712 10.0942 10.8646 10.1403 10.8536C10.1446 10.8525 10.149 10.852 10.1533 10.8508C10.1953 10.84 10.2363 10.8234 10.2764 10.8028C10.284 10.799 10.2916 10.795 10.2991 10.7908C10.3062 10.7868 10.3136 10.7839 10.3206 10.7796L15.9745 7.25401C15.9849 7.31381 15.9913 7.37454 15.9913 7.43727V13.095Z" fill="#464646"/>
</g>
<defs>
<clipPath id="clip0_908_256">
<rect width="20" height="20" fill="white"/>
</clipPath>
</defs>
</svg>
