<svg width="40" height="40" viewBox="0 0 40 40" fill="none" xmlns="http://www.w3.org/2000/svg">
<g clip-path="url(#clip0_908_242)">
<path d="M18.3468 24.4148C21.698 24.4148 24.4147 21.6981 24.4147 18.3469C24.4147 14.9956 21.698 12.2789 18.3468 12.2789C14.9955 12.2789 12.2788 14.9956 12.2788 18.3469C12.2788 21.6981 14.9955 24.4148 18.3468 24.4148Z" fill="#252C3A"/>
<path d="M20 0C8.95469 0 0 8.95469 0 20C0 31.0453 8.95469 40 20 40C31.0453 40 40 31.0453 40 20C40 8.95469 31.0453 0 20 0ZM30.3906 30.3906C30.2176 30.5638 30.0121 30.7011 29.786 30.7948C29.5598 30.8886 29.3174 30.9368 29.0727 30.9368C28.8279 30.9368 28.5855 30.8886 28.3593 30.7948C28.1332 30.7011 27.9277 30.5638 27.7547 30.3906L23.4578 26.0938C21.5379 27.3606 19.2161 27.8697 16.9423 27.5223C14.6685 27.1749 12.6046 25.9959 11.1505 24.2136C9.6964 22.4313 8.95568 20.1727 9.07187 17.8754C9.18805 15.5782 10.1529 13.4058 11.7793 11.7793C13.4058 10.1529 15.5782 9.18805 17.8754 9.07187C20.1727 8.95568 22.4313 9.6964 24.2136 11.1505C25.9959 12.6046 27.1749 14.6685 27.5223 16.9423C27.8697 19.2161 27.3606 21.5379 26.0938 23.4578L30.3906 27.7547C30.5638 27.9277 30.7011 28.1332 30.7948 28.3593C30.8886 28.5855 30.9368 28.8279 30.9368 29.0727C30.9368 29.3174 30.8886 29.5598 30.7948 29.786C30.7011 30.0121 30.5638 30.2176 30.3906 30.3906Z" fill="#252C3A"/>
</g>
<defs>
<clipPath id="clip0_908_242">
<rect width="40" height="40" fill="white"/>
</clipPath>
</defs>
</svg>
