<svg width="40" height="40" viewBox="0 0 40 40" fill="none" xmlns="http://www.w3.org/2000/svg">
<g clip-path="url(#clip0_908_248)">
<path fill-rule="evenodd" clip-rule="evenodd" d="M18.0664 28.5906V21.9359H11.4094C8.86719 21.9359 8.86719 18.0672 11.4094 18.0672H18.0664V11.4102C18.0664 8.86797 21.9352 8.86797 21.9352 11.4102V18.0672H28.5898C31.132 18.0672 31.132 21.9359 28.5898 21.9359H21.9352V28.5906C21.9352 31.1328 18.0664 31.1328 18.0664 28.5906ZM20 40C31.0461 40 40 31.0469 40 20C40 8.95391 31.0461 0 20 0C8.95391 0 0 8.95391 0 20C0 31.0461 8.95391 40 20 40Z" fill="#FFB700"/>
</g>
<defs>
<clipPath id="clip0_908_248">
<rect width="40" height="40" fill="white"/>
</clipPath>
</defs>
</svg>
