<svg width="68" height="68" viewBox="0 0 68 68" fill="none" xmlns="http://www.w3.org/2000/svg">
<path d="M63.7978 65.7079H61.8877V5.73033C61.8877 5.09721 61.3745 4.58429 60.7417 4.58429H39.3484C38.7154 4.58429 38.2023 5.09721 38.2023 5.73033V10.6966H35.9102V5.73033C35.9102 5.09721 35.3971 4.58429 34.7642 4.58429H29.7978V1.14604C29.7978 0.512922 29.2846 0 28.6518 0C28.0189 0 27.5057 0.512922 27.5057 1.14604V4.58429H22.5395C21.9065 4.58429 21.3934 5.09721 21.3934 5.73033V10.6966H17.9552C17.3222 10.6966 16.8092 11.2095 16.8092 11.8426V21.3932H7.25861C6.62562 21.3932 6.11257 21.9061 6.11257 22.5392V65.7078H4.20219C3.56921 65.7078 3.05615 66.2207 3.05615 66.8538C3.05615 67.4869 3.56934 68 4.20219 68H63.7978C64.4308 68 64.9439 67.4871 64.9439 66.854C64.9439 66.2208 64.4307 65.7079 63.7978 65.7079ZM23.6854 6.87637H33.6179V10.6966H23.6854V6.87637ZM19.8652 65.7079H19.1011V63.7978C19.1011 63.1647 18.5879 62.6518 17.9551 62.6518C17.3222 62.6518 16.809 63.1647 16.809 63.7978V65.7079H16.0449V61.8877H19.8652V65.7079ZM27.5056 36.2921V38.2637V65.7079H22.1572V60.7417C22.1572 60.1085 21.6441 59.5956 21.0112 59.5956H14.8989C14.2659 59.5956 13.7529 60.1085 13.7529 60.7417V65.7079H8.40451V23.6854H27.5056V36.2921ZM28.6516 21.3933H19.1011V12.9888H38.2022V35.146H29.7978V31.3258H33.2361C33.8691 31.3258 34.3821 30.8129 34.3821 30.1798C34.3821 29.5467 33.8689 29.0337 33.2361 29.0337H29.7978V25.2135H33.2361C33.8691 25.2135 34.3821 24.7006 34.3821 24.0675C34.3821 23.4344 33.8689 22.9214 33.2361 22.9214H29.7978V22.5395C29.7978 21.9062 29.2846 21.3933 28.6516 21.3933ZM48.8989 65.7079H29.7978V38.2637V37.4383H48.8989V65.7079ZM59.5955 65.7079H51.191V36.2921V34.7639C51.191 34.1308 50.6778 33.6179 50.0449 33.6179C49.4121 33.6179 48.8989 34.1308 48.8989 34.7639V35.1459H46.6068V34.7639C46.6068 34.1308 46.0936 33.6179 45.4608 33.6179C44.8279 33.6179 44.3148 34.1308 44.3148 34.7639V35.1459H40.4945V11.8428V6.87637H59.5956V65.7079H59.5955Z" fill="#78B8E4"/>
<path d="M34.764 63.416C35.3969 63.416 35.91 62.9028 35.91 62.2699V40.8768C35.91 40.2436 35.3968 39.7307 34.764 39.7307C34.1311 39.7307 33.6179 40.2436 33.6179 40.8768V62.2701C33.6179 62.9029 34.131 63.416 34.764 63.416Z" fill="#78B8E4"/>
<path d="M39.3484 63.416C39.9814 63.416 40.4945 62.9028 40.4945 62.2699V40.8768C40.4945 40.2436 39.9813 39.7307 39.3484 39.7307C38.7156 39.7307 38.2024 40.2436 38.2024 40.8768V62.2701C38.2023 62.9029 38.7154 63.416 39.3484 63.416Z" fill="#78B8E4"/>
<path d="M43.9324 63.416C44.5654 63.416 45.0785 62.9028 45.0785 62.2699V40.8768C45.0785 40.2436 44.5653 39.7307 43.9324 39.7307C43.2996 39.7307 42.7864 40.2436 42.7864 40.8768V62.2701C42.7864 62.9029 43.2996 63.416 43.9324 63.416Z" fill="#78B8E4"/>
<path d="M45.4607 14.5168C46.0937 14.5168 46.6068 14.0039 46.6068 13.3708V11.8428C46.6068 11.2096 46.0936 10.6967 45.4607 10.6967C44.8279 10.6967 44.3147 11.2096 44.3147 11.8428V13.3709C44.3147 14.0039 44.8278 14.5168 45.4607 14.5168Z" fill="#78B8E4"/>
<path d="M50.045 14.5168C50.6779 14.5168 51.191 14.0039 51.191 13.3708V11.8428C51.191 11.2096 50.6778 10.6967 50.045 10.6967C49.4121 10.6967 48.8989 11.2096 48.8989 11.8428V13.3709C48.8989 14.0039 49.412 14.5168 50.045 14.5168Z" fill="#78B8E4"/>
<path d="M54.6292 14.5168C55.2622 14.5168 55.7752 14.0039 55.7752 13.3708V11.8428C55.7752 11.2096 55.262 10.6967 54.6292 10.6967C53.9963 10.6967 53.4832 11.2096 53.4832 11.8428V13.3709C53.4832 14.0039 53.9962 14.5168 54.6292 14.5168Z" fill="#78B8E4"/>
<path d="M45.4607 22.1573C46.0937 22.1573 46.6068 21.6443 46.6068 21.0112V19.4831C46.6068 18.85 46.0936 18.337 45.4607 18.337C44.8279 18.337 44.3147 18.85 44.3147 19.4831V21.0112C44.3147 21.6443 44.8278 22.1573 45.4607 22.1573Z" fill="#78B8E4"/>
<path d="M50.045 22.1573C50.6779 22.1573 51.191 21.6443 51.191 21.0112V19.4831C51.191 18.85 50.6778 18.337 50.045 18.337C49.4121 18.337 48.8989 18.85 48.8989 19.4831V21.0112C48.8989 21.6443 49.412 22.1573 50.045 22.1573Z" fill="#78B8E4"/>
<path d="M54.6292 22.1573C55.2622 22.1573 55.7752 21.6443 55.7752 21.0112V19.4831C55.7752 18.85 55.262 18.337 54.6292 18.337C53.9963 18.337 53.4832 18.85 53.4832 19.4831V21.0112C53.4832 21.6443 53.9962 22.1573 54.6292 22.1573Z" fill="#78B8E4"/>
<path d="M45.4607 29.7978C46.0937 29.7978 46.6068 29.2849 46.6068 28.6518V27.1236C46.6068 26.4905 46.0936 25.9776 45.4607 25.9776C44.8279 25.9776 44.3147 26.4905 44.3147 27.1236V28.6518C44.3147 29.2848 44.8278 29.7978 45.4607 29.7978Z" fill="#78B8E4"/>
<path d="M50.045 29.7978C50.6779 29.7978 51.191 29.2849 51.191 28.6518V27.1236C51.191 26.4905 50.6778 25.9776 50.045 25.9776C49.4121 25.9776 48.8989 26.4905 48.8989 27.1236V28.6518C48.8989 29.2848 49.412 29.7978 50.045 29.7978Z" fill="#78B8E4"/>
<path d="M54.6292 29.7978C55.2622 29.7978 55.7752 29.2849 55.7752 28.6518V27.1236C55.7752 26.4905 55.262 25.9776 54.6292 25.9776C53.9963 25.9776 53.4832 26.4905 53.4832 27.1236V28.6518C53.4832 29.2848 53.9962 29.7978 54.6292 29.7978Z" fill="#78B8E4"/>
<path d="M13.3706 32.854C14.0036 32.854 14.5167 32.3411 14.5167 31.7079V30.1798C14.5167 29.5467 14.0035 29.0338 13.3706 29.0338C12.7378 29.0338 12.2246 29.5467 12.2246 30.1798V31.7079C12.2246 32.3409 12.7378 32.854 13.3706 32.854Z" fill="#78B8E4"/>
<path d="M17.9551 32.854C18.5881 32.854 19.1012 32.3411 19.1012 31.7079V30.1798C19.1012 29.5467 18.588 29.0338 17.9551 29.0338C17.3223 29.0338 16.8091 29.5467 16.8091 30.1798V31.7079C16.8091 32.3409 17.3221 32.854 17.9551 32.854Z" fill="#78B8E4"/>
<path d="M22.5393 32.854C23.1723 32.854 23.6854 32.3411 23.6854 31.7079V30.1798C23.6854 29.5467 23.1722 29.0338 22.5393 29.0338C21.9065 29.0338 21.3933 29.5467 21.3933 30.1798V31.7079C21.3933 32.3409 21.9064 32.854 22.5393 32.854Z" fill="#78B8E4"/>
<path d="M13.3706 40.4944C14.0036 40.4944 14.5167 39.9815 14.5167 39.3484V37.8202C14.5167 37.1871 14.0035 36.6742 13.3706 36.6742C12.7378 36.6742 12.2246 37.1871 12.2246 37.8202V39.3484C12.2246 39.9814 12.7378 40.4944 13.3706 40.4944Z" fill="#78B8E4"/>
<path d="M17.9551 40.4944C18.5881 40.4944 19.1012 39.9815 19.1012 39.3484V37.8202C19.1012 37.1871 18.588 36.6742 17.9551 36.6742C17.3223 36.6742 16.8091 37.1871 16.8091 37.8202V39.3484C16.8091 39.9814 17.3221 40.4944 17.9551 40.4944Z" fill="#78B8E4"/>
<path d="M22.5393 40.4944C23.1723 40.4944 23.6854 39.9815 23.6854 39.3484V37.8202C23.6854 37.1871 23.1722 36.6742 22.5393 36.6742C21.9065 36.6742 21.3933 37.1871 21.3933 37.8202V39.3484C21.3933 39.9814 21.9064 40.4944 22.5393 40.4944Z" fill="#78B8E4"/>
<path d="M13.3706 48.1349C14.0036 48.1349 14.5167 47.6219 14.5167 46.9888V45.4607C14.5167 44.8276 14.0035 44.3146 13.3706 44.3146C12.7378 44.3146 12.2246 44.8276 12.2246 45.4607V46.9888C12.2246 47.6219 12.7378 48.1349 13.3706 48.1349Z" fill="#78B8E4"/>
<path d="M17.9551 48.1349C18.5881 48.1349 19.1012 47.6219 19.1012 46.9888V45.4607C19.1012 44.8276 18.588 44.3146 17.9551 44.3146C17.3223 44.3146 16.8091 44.8276 16.8091 45.4607V46.9888C16.8091 47.6219 17.3221 48.1349 17.9551 48.1349Z" fill="#78B8E4"/>
<path d="M22.5393 48.1349C23.1723 48.1349 23.6854 47.6219 23.6854 46.9888V45.4607C23.6854 44.8276 23.1722 44.3146 22.5393 44.3146C21.9065 44.3146 21.3933 44.8276 21.3933 45.4607V46.9888C21.3933 47.6219 21.9064 48.1349 22.5393 48.1349Z" fill="#78B8E4"/>
<path d="M13.3706 55.7753C14.0036 55.7753 14.5167 55.2624 14.5167 54.6293V53.1011C14.5167 52.468 14.0035 51.9551 13.3706 51.9551C12.7378 51.9551 12.2246 52.468 12.2246 53.1011V54.6293C12.2246 55.2624 12.7378 55.7753 13.3706 55.7753Z" fill="#78B8E4"/>
<path d="M17.9551 55.7753C18.5881 55.7753 19.1012 55.2624 19.1012 54.6293V53.1011C19.1012 52.468 18.588 51.9551 17.9551 51.9551C17.3223 51.9551 16.8091 52.468 16.8091 53.1011V54.6293C16.8091 55.2624 17.3221 55.7753 17.9551 55.7753Z" fill="#78B8E4"/>
<path d="M22.5393 55.7753C23.1723 55.7753 23.6854 55.2624 23.6854 54.6293V53.1011C23.6854 52.468 23.1722 51.9551 22.5393 51.9551C21.9065 51.9551 21.3933 52.468 21.3933 53.1011V54.6293C21.3933 55.2624 21.9064 55.7753 22.5393 55.7753Z" fill="#78B8E4"/>
<path d="M54.6292 37.4383C55.2622 37.4383 55.7752 36.9253 55.7752 36.2922V34.7641C55.7752 34.131 55.262 33.618 54.6292 33.618C53.9963 33.618 53.4832 34.131 53.4832 34.7641V36.2922C53.4832 36.9252 53.9962 37.4383 54.6292 37.4383Z" fill="#78B8E4"/>
<path d="M54.6292 45.0787C55.2622 45.0787 55.7752 44.5658 55.7752 43.9327V42.4045C55.7752 41.7714 55.262 41.2585 54.6292 41.2585C53.9963 41.2585 53.4832 41.7714 53.4832 42.4045V43.9327C53.4832 44.5656 53.9962 45.0787 54.6292 45.0787Z" fill="#78B8E4"/>
<path d="M54.6292 52.7191C55.2622 52.7191 55.7752 52.2062 55.7752 51.5731V50.045C55.7752 49.4118 55.262 48.8989 54.6292 48.8989C53.9963 48.8989 53.4832 49.4118 53.4832 50.045V51.5731C53.4832 52.2061 53.9962 52.7191 54.6292 52.7191Z" fill="#78B8E4"/>
<path d="M54.6292 60.3596C55.2622 60.3596 55.7752 59.8467 55.7752 59.2135V57.6854C55.7752 57.0523 55.262 56.5394 54.6292 56.5394C53.9963 56.5394 53.4832 57.0523 53.4832 57.6854V59.2135C53.4832 59.8465 53.9962 60.3596 54.6292 60.3596Z" fill="#78B8E4"/>
<path d="M34.382 17.9551C34.382 17.3219 33.8689 16.809 33.236 16.809H24.0674C23.4344 16.809 22.9214 17.3219 22.9214 17.9551C22.9214 18.5882 23.4346 19.1011 24.0674 19.1011H33.236C33.869 19.1011 34.382 18.5882 34.382 17.9551Z" fill="#78B8E4"/>
</svg>
