<svg width="20" height="20" viewBox="0 0 20 20" fill="none" xmlns="http://www.w3.org/2000/svg">
<g clip-path="url(#clip0_908_239)">
<path d="M10 0C8.02219 0 6.08879 0.58649 4.4443 1.6853C2.79981 2.78412 1.51809 4.3459 0.761209 6.17316C0.00433294 8.00043 -0.1937 10.0111 0.192152 11.9509C0.578004 13.8907 1.53041 15.6725 2.92894 17.0711C4.32746 18.4696 6.10929 19.422 8.0491 19.8078C9.98891 20.1937 11.9996 19.9957 13.8268 19.2388C15.6541 18.4819 17.2159 17.2002 18.3147 15.5557C19.4135 13.9112 20 11.9778 20 10C20 7.34783 18.9464 4.8043 17.0711 2.92893C15.1957 1.05357 12.6522 0 10 0ZM10.4287 6.14267C11.3377 6.14372 12.2092 6.5053 12.8519 7.14807C13.4947 7.79084 13.8563 8.66232 13.8573 9.57133H13C12.9993 8.88959 12.7282 8.23597 12.2461 7.7539C11.764 7.27184 11.1104 7.0007 10.4287 7V6.14267ZM13.2053 16C13.1793 16 10.6053 15.956 7.29534 12.7047C4.044 9.396 4 6.82067 4 6.79467C4 6.474 6 4 6.442 4C6.59534 4 6.71467 4.104 6.84534 4.26C7.16 4.63467 8.55134 6.83067 8.48734 7.19667C8.45667 7.36867 8.31067 7.49933 7.892 7.85067C7.68571 8.01284 7.49266 8.19118 7.31467 8.384C7.39991 8.7368 7.52656 9.07828 7.692 9.40133C8.30836 10.6686 9.33243 11.6922 10.6 12.308C10.9231 12.4734 11.2645 12.6001 11.6173 12.6853C11.8102 12.5073 11.9885 12.3143 12.1507 12.108C12.502 11.6893 12.6327 11.5433 12.8047 11.5127C13.1707 11.446 15.3667 12.84 15.7413 13.1547C15.8973 13.288 16.0013 13.4047 16.0013 13.558C16 14 13.526 16 13.2053 16ZM15.1427 9.57133C15.1413 8.32154 14.6442 7.12333 13.7604 6.23959C12.8767 5.35585 11.6785 4.85874 10.4287 4.85733V4C11.9057 4.00176 13.3218 4.58931 14.3662 5.63375C15.4107 6.6782 15.9982 8.09426 16 9.57133H15.1427Z" fill="#464646"/>
</g>
<defs>
<clipPath id="clip0_908_239">
<rect width="20" height="20" fill="white"/>
</clipPath>
</defs>
</svg>
